<svg width="20" height="21" viewBox="0 0 20 21" fill="none" xmlns="http://www.w3.org/2000/svg">
<g clip-path="url(#clip0_330_1072)">
<path d="M7.4001 4.33219C6.73344 1.44886 2.39177 1.44052 1.7251 4.33219C1.33344 6.02386 2.40844 7.45719 3.34177 8.34886C4.0251 8.99053 5.1001 8.99053 5.78344 8.34886C6.71677 7.45719 7.78344 6.02386 7.4001 4.33219ZM4.59177 5.66552C4.13344 5.66552 3.75844 5.29052 3.75844 4.83219C3.75844 4.37386 4.1251 3.99886 4.58344 3.99886H4.59177C5.05844 3.99886 5.4251 4.37386 5.4251 4.83219C5.4251 5.29052 5.05844 5.66552 4.59177 5.66552Z" fill="#2A2A2A"/>
<path d="M18.2588 14.3316C17.5921 11.4483 13.2338 11.4399 12.5588 14.3316C12.1672 16.0233 13.2422 17.4566 14.1838 18.3483C14.8672 18.9899 15.9505 18.9899 16.6338 18.3483C17.5755 17.4566 18.6505 16.0233 18.2588 14.3316ZM15.4422 15.6649C14.9838 15.6649 14.6088 15.2899 14.6088 14.8316C14.6088 14.3733 14.9755 13.9983 15.4338 13.9983H15.4422C15.9005 13.9983 16.2755 14.3733 16.2755 14.8316C16.2755 15.2899 15.9005 15.6649 15.4422 15.6649Z" fill="#2A2A2A"/>
<path d="M9.99979 16.9581H7.76645C6.79979 16.9581 5.95812 16.3748 5.62479 15.4748C5.28312 14.5748 5.53312 13.5831 6.25812 12.9415L12.9165 7.11646C13.3165 6.76646 13.3248 6.29146 13.2081 5.96646C13.0831 5.64146 12.7665 5.29146 12.2331 5.29146H9.99979C9.65812 5.29146 9.37479 5.00812 9.37479 4.66646C9.37479 4.32479 9.65812 4.04146 9.99979 4.04146H12.2331C13.1998 4.04146 14.0415 4.62479 14.3748 5.52479C14.7165 6.42479 14.4665 7.41646 13.7415 8.05812L7.08312 13.8831C6.68312 14.2331 6.67479 14.7081 6.79145 15.0331C6.91645 15.3581 7.23312 15.7081 7.76645 15.7081H9.99979C10.3415 15.7081 10.6248 15.9915 10.6248 16.3331C10.6248 16.6748 10.3415 16.9581 9.99979 16.9581Z" fill="#2A2A2A"/>
</g>
<defs>
<clipPath id="clip0_330_1072">
<rect width="20" height="20" fill="white" transform="translate(0 0.5)"/>
</clipPath>
</defs>
</svg>
