<svg width="14" height="15" viewBox="0 0 14 15" fill="none" xmlns="http://www.w3.org/2000/svg">
<path d="M12.5766 6.765L11.7833 5.84333C11.6316 5.66833 11.5091 5.34167 11.5091 5.10833V4.11667C11.5091 3.49833 11.0016 2.99083 10.3833 2.99083H9.39164C9.16414 2.99083 8.83164 2.86833 8.65664 2.71667L7.73497 1.92333C7.33247 1.57917 6.67331 1.57917 6.26497 1.92333L5.34914 2.7225C5.17414 2.86833 4.84164 2.99083 4.61414 2.99083H3.60497C2.98664 2.99083 2.47914 3.49833 2.47914 4.11667V5.11417C2.47914 5.34167 2.35664 5.66833 2.21081 5.84333L1.42331 6.77083C1.08497 7.17333 1.08497 7.82667 1.42331 8.22917L2.21081 9.15667C2.35664 9.33167 2.47914 9.65833 2.47914 9.88583V10.8833C2.47914 11.5017 2.98664 12.0092 3.60497 12.0092H4.61414C4.84164 12.0092 5.17414 12.1317 5.34914 12.2833L6.27081 13.0767C6.67331 13.4208 7.33247 13.4208 7.74081 13.0767L8.66247 12.2833C8.83747 12.1317 9.16414 12.0092 9.39747 12.0092H10.3891C11.0075 12.0092 11.515 11.5017 11.515 10.8833V9.89167C11.515 9.66417 11.6375 9.33167 11.7891 9.15667L12.5825 8.235C12.9208 7.8325 12.9208 7.1675 12.5766 6.765ZM9.42664 6.3975L6.60914 9.215C6.52747 9.29667 6.41664 9.34333 6.29997 9.34333C6.18331 9.34333 6.07247 9.29667 5.99081 9.215L4.57914 7.80333C4.40997 7.63417 4.40997 7.35417 4.57914 7.185C4.74831 7.01583 5.02831 7.01583 5.19747 7.185L6.29997 8.2875L8.80831 5.77917C8.97747 5.61 9.25747 5.61 9.42664 5.77917C9.59581 5.94833 9.59581 6.22833 9.42664 6.3975Z" fill="#60B527"/>
</svg>
